Coordinates
version=1
nRows=15
nColumns=42
inDegrees=yes

Units are S.I. units (second, meters, Newtons, ...)
If the header above contains a line with 'inDegrees', this indicates whether rotational values are in degrees (yes) or radians (no).

endheader
time	pelvis_tilt	pelvis_list	pelvis_rotation	pelvis_tx	pelvis_ty	pelvis_tz	hip_flexion_r	hip_adduction_r	hip_rotation_r	knee_angle_r	knee_adduction_r	knee_angle_r_beta	ankle_angle_r	subtalar_angle_r	mtp_angle_r	hip_flexion_l	hip_adduction_l	hip_rotation_l	knee_angle_l	knee_adduction_l	knee_angle_l_beta	ankle_angle_l	subtalar_angle_l	mtp_angle_l	lumbar_extension	lumbar_bending	lumbar_rotation	arm_flex_r	arm_add_r	arm_rot_r	elbow_flex_r	pro_sup_r	wrist_flex_r	wrist_dev_r	arm_flex_l	arm_add_l	arm_rot_l	elbow_flex_l	pro_sup_l	wrist_flex_l	wrist_dev_l
      1.20000000	     19.68373228	      3.55953663	      0.38111080	     -0.79783598	      0.89969124	     -0.06254167	      7.04980928	     -8.48269751	    -14.95885610	     61.81597852	     -6.02706846	      1.07889236	     14.74475503	    -13.35740358	     -7.67741229	    -13.09343191	      6.24318498	      0.98286781	     22.86227070	      4.08721034	      0.39902190	     21.88121150	      2.85093900	     -7.67741229	    -37.37738862	     -3.40920630	     -3.75146994	      4.99291448	     -4.08235856	    -24.70578055	     25.43843473	     90.00000001	      0.00000000	      0.00000000	     10.11303825	     -7.52352443	    -29.07293190	     34.48931266	     90.00000001	      0.00000000	      0.00000000
      1.21000000	     20.01051559	      3.41204953	      0.42234476	     -0.79038867	      0.90037414	     -0.06272504	      7.34871105	     -8.16709777	    -14.82519539	     59.45342928	     -5.57842128	      1.03765809	     14.02753812	    -14.30841708	     -7.66232961	    -14.48606843	      6.09237520	      0.98530043	     21.88796496	      3.95528117	      0.38201706	     22.53975181	      3.90846711	     -7.66232961	    -37.79203075	     -3.20613109	     -3.83339038	      5.07956345	     -3.84748630	    -28.09464866	     24.67107214	     90.00000001	      0.00000000	      0.00000000	     10.47495887	     -7.97802382	    -27.72951181	     34.41640374	     90.00000001	      0.00000000	      0.00000000
      1.22000000	     19.91741222	      3.50875593	      0.46668227	     -0.78317497	      0.90004156	     -0.06313799	      8.23243131	     -8.31090852	    -14.84429323	     57.36939159	     -5.13671278	      1.00128477	     13.77462122	    -14.40210769	     -7.65731067	    -15.11851402	      6.21738505	      0.70746712	     21.48422712	      3.78732093	      0.37497050	     22.94791911	      4.48703093	     -7.65731067	    -37.79396861	     -3.25871022	     -4.06614656	      4.68693572	     -3.86310729	    -28.47926738	     24.44762037	     90.00000001	      0.00000000	      0.00000000	     10.93368595	     -8.25715344	    -27.46061208	     34.42358515	     90.00000001	      0.00000000	      0.00000000
      1.23000000	     19.47125563	      3.73068365	      0.49254017	     -0.77629425	      0.89888057	     -0.06342267	      9.64660304	     -8.71990809	    -15.00428316	     55.57862000	     -4.68841889	      0.97002991	     13.61088269	    -13.87071895	     -7.65522214	    -15.12742010	      6.37287005	      0.25762105	     21.51839451	      3.82945964	      0.37556683	     22.98300591	      4.57831277	     -7.65522214	    -37.48026533	     -3.48286960	     -4.29443286	      4.17367903	     -3.85775782	    -28.51148454	     24.51767536	     90.00000001	      0.00000000	      0.00000000	     11.36505045	     -8.52811264	    -27.34309057	     34.76383141	     90.00000001	      0.00000000	      0.00000000
      1.24000000	     19.79143906	      3.45317696	      0.63201039	     -0.76869349	      0.89931192	     -0.06362146	      9.60503066	     -8.19946548	    -15.17370003	     52.73937601	     -4.40459717	      0.92047576	     12.74672648	    -14.90277593	     -7.64851689	    -16.34386503	      6.05776204	     -0.46862520	     20.91606956	      3.41049010	      0.36505428	     23.90811835	      6.60869396	     -7.64851689	    -37.85084205	     -3.11748064	     -4.36896836	      3.90072526	     -3.86366889	    -29.87876070	     24.16378784	     90.00000001	      0.00000000	      0.00000000	     11.79099340	     -8.79418152	    -26.70994956	     34.62558806	     90.00000001	      0.00000000	      0.00000000
      1.25000000	     19.38293439	      3.68962257	      0.70775277	     -0.76170603	      0.89815834	     -0.06396522	     10.72794954	     -8.49011025	    -15.35561251	     50.60191837	     -4.09491648	      0.88317008	     12.67202869	    -14.65574069	     -7.64599083	    -16.42016199	      6.37804399	     -0.94618496	     20.90847798	      3.05164915	      0.36492178	     24.23979381	      6.94807565	     -7.64599083	    -37.55122019	     -3.31558493	     -4.68983646	      3.46317757	     -3.85597258	    -30.05740370	     24.09911061	     90.00000001	      0.00000000	      0.00000000	     12.20191650	     -9.08750069	    -26.52362676	     34.75927212	     90.00000001	      0.00000000	      0.00000000
      1.26000000	     19.48190002	      3.37668292	      0.89428689	     -0.75418445	      0.89786610	     -0.06384654	     10.90492320	     -8.02667991	    -15.76265665	     47.90962066	     -3.76620845	      0.83618062	     11.91528800	    -15.15255142	     -7.63386448	    -16.96347617	      5.74110372	     -2.86377949	     21.17106514	      2.74568955	      0.36950479	     25.68020764	     10.40093907	     -7.63386448	    -37.69813914	     -2.95996453	     -4.66916085	      3.22550326	     -3.79685972	    -31.96932033	     23.76089961	     90.00000001	      0.00000000	      0.00000000	     12.64142579	     -9.36039219	    -25.87325645	     34.76431828	     90.00000001	      0.00000000	      0.00000000
      1.27000000	     19.35309596	      3.43941566	      1.04561114	     -0.74696998	      0.89717628	     -0.06399334	     11.41322132	     -8.09133905	    -16.00728514	     45.44901377	     -3.31195731	      0.79323493	     11.59428839	    -15.04960725	     -7.62909566	    -17.45078942	      5.72648823	     -3.51264871	     20.98284702	      2.50531050	      0.36621977	     26.15017248	     11.49942583	     -7.62909566	    -37.66342662	     -2.96756262	     -4.87507100	      2.81157430	     -3.81244123	    -32.34000254	     23.59823829	     90.00000001	      0.00000000	      0.00000000	     13.13802303	     -9.60686115	    -25.63656714	     34.70232158	     90.00000001	      0.00000000	      0.00000000
      1.28000000	     18.80040458	      3.75923429	      1.11766186	     -0.73989135	      0.89550004	     -0.06401137	     12.66649969	     -8.60221731	    -16.38150083	     43.60409223	     -2.88150515	      0.76103498	     11.45780808	    -14.47012773	     -7.62734874	    -17.35365615	      5.92907357	     -4.06802330	     21.02023195	      2.53407543	      0.36687226	     26.19189133	     11.53453764	     -7.62734874	    -37.19949675	     -3.31240900	     -5.07944762	      2.22423570	     -3.78959682	    -32.36387591	     23.66241715	     90.00000001	      0.00000000	      0.00000000	     13.55975124	     -9.81751141	    -25.52656306	     35.02941659	     90.00000001	      0.00000000	      0.00000000
      1.29000000	     18.97110554	      3.28943592	      1.40085309	     -0.73234924	      0.89530428	     -0.06387026	     12.38889829	     -7.75126271	    -16.64130605	     40.42261286	     -2.66484789	      0.70550769	     10.78048661	    -14.56580355	     -7.61636194	    -17.87070251	      5.19023744	     -6.22636560	     21.46271997	      1.80835693	      0.37459513	     27.87162187	     15.67792338	     -7.61636194	    -37.42216621	     -2.74071881	     -5.08953399	      2.01385153	     -3.80459539	    -33.94431505	     23.37323039	     90.00000001	      0.00000000	      0.00000000	     13.99845671	    -10.04603557	    -25.03568308	     34.84843367	     90.00000001	      0.00000000	      0.00000000
      1.30000000	     18.81837558	      3.29791727	      1.58737681	     -0.72508489	      0.89446173	     -0.06377664	     12.73704329	     -7.67300226	    -16.84731088	     37.89986334	     -2.26200789	      0.66147740	     10.46807007	    -14.03926257	     -7.61123930	    -18.24709450	      5.04029002	     -7.03654282	     21.43874603	      1.58104779	      0.37417671	     28.34047423	     16.91390781	     -7.61123930	    -37.36393882	     -2.70284227	     -5.23485852	      1.58260560	     -3.81863267	    -34.35393890	     23.30025029	     90.00000001	      0.00000000	      0.00000000	     14.47962250	    -10.24951852	    -24.82675919	     34.83304794	     90.00000001	      0.00000000	      0.00000000
      1.31000000	     18.64072098	      3.26393984	      1.80006589	     -0.71773843	      0.89350154	     -0.06355934	     13.06583465	     -7.52954651	    -17.09307551	     35.41054890	     -1.89579620	      0.61803067	     10.17784749	    -13.33517835	     -7.60581729	    -18.50882707	      4.78302634	     -8.13452721	     21.60770976	      1.29950799	      0.37712568	     29.00162283	     18.57924081	     -7.60581729	    -37.26809561	     -2.63129390	     -5.35998544	      1.16677703	     -3.80331659	    -34.90447432	     23.19700940	     90.00000001	      0.00000000	      0.00000000	     14.93419693	    -10.43791555	    -24.60110073	     34.84422375	     90.00000001	      0.00000000	      0.00000000
      1.32000000	     18.07571685	      3.62210264	      1.89429724	     -0.71049636	      0.89170246	     -0.06328137	     14.20411019	     -8.01972093	    -17.47759704	     33.81386734	     -1.52943824	      0.59016332	     10.03056068	    -12.71225312	     -7.60440094	    -18.40085808	      4.99411005	     -8.59694003	     21.68974314	      1.33610499	      0.37855743	     29.00259457	     18.52240981	     -7.60440094	    -36.78645492	     -3.03483971	     -5.54599665	      0.58082152	     -3.75093696	    -34.91221778	     23.24959744	     90.00000001	      0.00000000	      0.00000000	     15.30766673	    -10.60769390	    -24.50454084	     35.13344414	     90.00000001	      0.00000000	      0.00000000
      1.33000000	     18.15085016	      3.27197335	      2.22661279	     -0.70296118	      0.89126135	     -0.06303078	     13.83567800	     -7.30728897	    -17.60521493	     30.73328085	     -1.32595900	      0.53639694	      9.71247690	    -11.15467153	     -7.59708302	    -18.76795416	      4.32903973	    -10.37924769	     22.18524881	      0.67211480	      0.38720564	     30.27367238	     21.96613090	     -7.59708302	    -36.93564591	     -2.56591327	     -5.63242551	      0.32663318	     -3.77203724	    -36.04624218	     23.09482578	     90.00000001	      0.00000000	      0.00000000	     15.73795989	    -10.77166439	    -24.23511070	     34.95477844	     90.00000001	      0.00000000	      0.00000000
      1.34000000	     17.62451644	      3.61080413	      2.34061193	     -0.69563375	      0.88952749	     -0.06262223	     14.88539196	     -7.73656478	    -17.92300300	     29.38496489	     -1.01044747	      0.51286439	      9.62286443	    -10.59613146	     -7.59582551	    -18.71146596	      4.49806627	    -10.75653517	     22.27479935	      0.71993645	      0.38876859	     30.22674226	     21.84409173	     -7.59582551	    -36.49505414	     -2.94499313	     -5.81399489	     -0.22849312	     -3.71583896	    -36.03828168	     23.11955629	     90.00000001	      0.00000000	      0.00000000	     16.11435805	    -10.91770719	    -24.14069532	     35.21281886	     90.00000001	      0.00000000	      0.00000000
